<svg xmlns="http://www.w3.org/2000/svg" width="64" height="64" viewBox="0 0 64 64" fill="none">
  <defs>
    <linearGradient id="breeze" x1="0" y1="0" x2="1" y2="1">
      <stop offset="0%" stop-color="#3EF0FF"/>
      <stop offset="100%" stop-color="#FF5FC3"/>
    </linearGradient>
    <radialGradient id="airglow" cx="50%" cy="50%" r="50%">
      <stop offset="0%" stop-color="#3EF0FF" stop-opacity="0.18"/>
      <stop offset="100%" stop-color="#3EF0FF" stop-opacity="0"/>
    </radialGradient>
  </defs>

  <!-- soft ambient glow -->
  <circle cx="32" cy="32" r="30" fill="url(#airglow)"/>

  <!-- wind swooshes -->
  <path d="M10 26 C 20 24, 28 22, 42 24 C 50 25, 54 28, 54 32 C 54 35, 51 37, 48 37"
        stroke="url(#breeze)" stroke-width="3" stroke-linecap="round" stroke-linejoin="round"/>
  <path d="M10 34 C 21 33, 30 31, 40 33 C 46 34, 50 36, 50 39 C 50 41, 48 43, 45 43"
        stroke="url(#breeze)" stroke-width="3" stroke-linecap="round" stroke-linejoin="round" opacity="0.85"/>
  <path d="M18 41 C 26 40, 32 39, 38 40"
        stroke="url(#breeze)" stroke-width="3" stroke-linecap="round" stroke-linejoin="round" opacity="0.7"/>

  <!-- subtle swirl hint -->
  <path d="M44 27 q 6 2 6 7 q 0 6 -6 8" stroke="#A8FF60" stroke-opacity="0.7" stroke-width="2" fill="none" stroke-linecap="round"/>
</svg>


